<svg width="52" height="50" viewBox="0 0 52 50" fill="none" xmlns="http://www.w3.org/2000/svg">
  <path
    fill-rule="evenodd"
    clip-rule="evenodd"
    d="M25.85 0C11.5675 0 0 11.4625 0 25.6125C0 36.9375 7.4075 46.4625 17.685 49.8625C18.97 50.0875 19.4575 49.3125 19.4575 48.65C19.4575 48.05 19.4325 46.0625 19.4225 43.9375C12.2275 45.475 10.7125 40.6125 10.7125 40.6125C9.545 37.675 7.855 36.9 7.855 36.9C5.5225 35.3 8.0325 35.3375 8.0325 35.3375C10.6175 35.5125 11.98 37.9625 11.98 37.9625C14.2825 41.9125 18.0325 40.7875 19.51 40.15C19.7375 38.5 20.395 37.375 21.115 36.7375C15.3825 36.1 9.355 33.9 9.355 24.1375C9.355 21.3625 10.355 19.1 12.0325 17.3375C11.7675 16.6875 10.905 14.1125 12.2725 10.5625C12.2725 10.5625 14.435 9.8625 19.385 13.2C21.4225 12.6375 23.635 12.3562 25.835 12.3437C28.035 12.3562 30.2475 12.6375 32.285 13.2C37.23 9.8625 39.3875 10.5625 39.3875 10.5625C40.7575 14.1125 39.8925 16.6875 39.6325 17.3375C41.3125 19.1 42.305 21.3625 42.305 24.1375C42.305 33.925 36.265 36.0875 30.5125 36.7125C31.415 37.4875 32.2175 39.0125 32.2175 41.3375C32.2175 44.6625 32.185 47.3375 32.185 48.6375C32.185 49.3 32.6625 50.0875 33.9675 49.85C44.305 46.45 51.7 36.925 51.7 25.6125C51.7 11.4625 40.1325 0 25.85 0Z"
    fill="#191717"
  />
</svg>
