<svg width="50" height="50" viewBox="0 0 50 50" fill="none" xmlns="http://www.w3.org/2000/svg">
  <path
    d="M45.4545 25.5682C45.4545 23.8636 45.3068 22.2273 45.0341 20.6591H25.4545V29.9773H36.6364C36.1364 32.6818 34.5909 35 32.1136 36.5909V42.0455H39.0455C43.0227 38.3864 45.4545 32.5227 45.4545 25.5682Z"
    fill="#4285F4"
  />
  <path
    d="M25.4545 47.2727C31.6591 47.2727 36.8636 45.2045 39.0455 42.0455L32.1136 36.5909C30.1136 37.9318 27.5 38.75 25.4545 38.75C19.4545 38.75 14.3636 34.9773 12.5909 29.7727H5.43182V35.3864C9.27273 42.9318 16.7727 47.2727 25.4545 47.2727Z"
    fill="#34A853"
  />
  <path
    d="M12.5909 29.7727C12.1364 28.4318 11.8636 27 11.8636 25.5C11.8636 24 12.1364 22.5682 12.5909 21.2273V15.6136H5.43182C3.86364 18.7045 3 22.0455 3 25.5C3 28.9545 3.86364 32.2955 5.43182 35.3864L12.5909 29.7727Z"
    fill="#FBBC05"
  />
  <path
    d="M25.4545 12.25C28.8636 12.25 31.6136 13.3636 33.8182 15.4318L39.2727 10.0909C36.1591 7.18182 31.6591 5.22727 25.4545 5.22727C16.7727 5.22727 9.27273 9.56818 5.43182 17.1136L12.5909 22.7273C14.3636 17.5227 19.4545 13.75 25.4545 13.75V12.25Z"
    fill="#EA4335"
  />
</svg>
