<svg width="32" height="30" viewBox="0 0 32 30" fill="none" xmlns="http://www.w3.org/2000/svg">
<path d="M12.9632 0.372681C6.66652 2.06401 2.28536 7.40292 1.93894 13.8014L1.81667 15.88L2.50951 15.5947C4.0582 14.963 4.0582 14.963 4.18046 16.043C4.2416 16.5728 4.32311 17.1434 4.36386 17.286C4.40462 17.449 3.65065 17.8362 2.12234 18.3864C-0.42485 19.3237 -0.26183 19.0792 0.471759 21.0762C0.695912 21.6264 1.12384 22.5638 1.47026 23.1547L2.08158 24.2143L3.26348 23.8068L4.44537 23.3992L6.17746 25.0906C8.19483 27.0672 9.56012 27.9231 12.0054 28.7585C17.3647 30.6129 23.5391 29.0234 27.4719 24.7849C29.8765 22.197 31.1806 19.12 31.364 15.615C31.4252 14.535 31.4252 13.6384 31.364 13.6384C31.2825 13.6384 30.7731 13.8218 30.2025 14.046C29.632 14.2701 29.1429 14.4535 29.1021 14.4535C29.0614 14.4535 28.9187 13.8422 28.7965 13.1086C28.6538 12.375 28.3278 11.1728 28.0629 10.4595C27.798 9.74633 27.6553 9.11463 27.7368 9.07387C27.8184 9.01274 28.7965 8.64594 29.8969 8.23839C31.0176 7.85122 31.955 7.48442 31.9957 7.44367C32.0569 7.36216 31.4456 6.09875 31.0584 5.54856C30.9361 5.34479 30.6508 5.38554 29.8357 5.69121L28.7557 6.09875L28.1036 5.34479C26.2493 3.1644 23.9263 1.55457 21.4198 0.698719C19.1375 -0.0756264 15.2251 -0.238646 12.9632 0.372681ZM20.0545 5.67083C20.7066 5.91536 21.7866 6.52668 22.4591 7.03612L23.6817 7.93273L24.6802 7.54556L25.6787 7.13801L26.0659 7.58631C26.5753 8.13651 27.1459 8.99236 27.1459 9.17576C27.1459 9.25727 26.29 9.60369 25.2712 9.97048C22.4387 10.9894 22.6221 10.7856 23.1927 12.1712C23.4576 12.8437 23.7429 14.0256 23.804 14.7999L23.9466 16.2467L25.0674 15.8596C25.6787 15.6558 26.2085 15.4928 26.2493 15.5132C26.4123 15.6966 25.8214 17.7954 25.3119 18.8958C24.0485 21.606 21.2568 23.7049 18.2002 24.2347C15.653 24.7034 12.7186 23.9291 10.6809 22.2581L9.7639 21.5041L8.52087 21.9524L7.27784 22.3804L6.70727 21.7283C6.07557 20.9743 5.03632 18.9162 4.85292 18.0196L4.71028 17.3879L7.01294 16.5728L9.29521 15.7373L9.23408 14.535C9.21371 13.883 9.15257 13.3124 9.11182 13.2716C9.09144 13.2513 8.582 13.3939 8.01143 13.6384L6.9518 14.046L7.09445 13.292C7.78728 9.39991 10.4364 6.4248 14.1654 5.38554C15.6734 4.95762 18.5466 5.10026 20.0545 5.67083Z" fill="url(#paint0_linear_670_1461)"/>
<defs>
<linearGradient id="paint0_linear_670_1461" x1="16" y1="29.5237" x2="15.9929" y2="-0.643864" gradientUnits="userSpaceOnUse">
<stop stop-color="#95E8FF"/>
<stop offset="0.0552232" stop-color="#00C2FF"/>
<stop offset="0.192686" stop-color="#1174F7"/>
<stop offset="1" stop-color="#030982"/>
</linearGradient>
</defs>
</svg>
