<svg width="20" height="20" viewBox="0 0 20 20" fill="none" xmlns="http://www.w3.org/2000/svg">
<path d="M14.1668 11.6666V16.6666M11.6668 14.1666H16.6668M5.00016 8.33325H6.66683C7.5873 8.33325 8.3335 7.58706 8.3335 6.66659V4.99992C8.3335 4.07944 7.5873 3.33325 6.66683 3.33325H5.00016C4.07969 3.33325 3.3335 4.07944 3.3335 4.99992V6.66659C3.3335 7.58706 4.07969 8.33325 5.00016 8.33325ZM13.3335 8.33325H15.0002C15.9206 8.33325 16.6668 7.58706 16.6668 6.66659V4.99992C16.6668 4.07944 15.9206 3.33325 15.0002 3.33325H13.3335C12.413 3.33325 11.6668 4.07944 11.6668 4.99992V6.66659C11.6668 7.58706 12.413 8.33325 13.3335 8.33325ZM5.00016 16.6666H6.66683C7.5873 16.6666 8.3335 15.9204 8.3335 14.9999V13.3333C8.3335 12.4128 7.5873 11.6666 6.66683 11.6666H5.00016C4.07969 11.6666 3.3335 12.4128 3.3335 13.3333V14.9999C3.3335 15.9204 4.07969 16.6666 5.00016 16.6666Z" stroke="#6B6B6B" stroke-width="1.5" stroke-linecap="round" stroke-linejoin="round"/>
</svg>
