<svg width="15" height="14" viewBox="0 0 15 14" fill="none" xmlns="http://www.w3.org/2000/svg">
<path d="M7.12483 0.125C6.90537 0.125022 6.72743 0.322692 6.72746 0.566524C6.72746 0.570266 6.72822 0.573842 6.72831 0.577562C6.72798 0.610693 6.72638 0.650607 6.72746 0.679452C6.73269 0.820088 6.76335 0.927725 6.7818 1.0573C6.81523 1.33462 6.84324 1.5645 6.82595 1.77817C6.80914 1.85874 6.7498 1.93243 6.69689 1.98365L6.68755 2.15177C6.44908 2.17152 6.20901 2.2077 5.96922 2.26215C4.93743 2.49642 4.04907 3.0279 3.37272 3.7455C3.32884 3.71556 3.25206 3.66048 3.22923 3.64361C3.15828 3.65319 3.08657 3.67508 2.99318 3.62068C2.81535 3.50098 2.65339 3.33575 2.45741 3.1367C2.36761 3.04149 2.30258 2.95083 2.19589 2.85905C2.17166 2.83821 2.13469 2.81002 2.10758 2.78858C2.02417 2.72208 1.92579 2.6874 1.83078 2.68414C1.70863 2.67996 1.59103 2.72772 1.51407 2.82424C1.37726 2.99583 1.42107 3.2581 1.61172 3.41011C1.61365 3.41165 1.61571 3.41285 1.61766 3.41436C1.64386 3.43559 1.67594 3.4628 1.70002 3.48058C1.81324 3.56418 1.91666 3.60697 2.02947 3.67333C2.26713 3.8201 2.46416 3.9418 2.62043 4.08853C2.68146 4.15358 2.69212 4.26821 2.70025 4.31778L2.82761 4.43156C2.1458 5.45763 1.83026 6.72502 2.01673 8.0164L1.85031 8.06479C1.80645 8.12143 1.74447 8.21056 1.67965 8.23716C1.47518 8.30156 1.24507 8.32521 0.967263 8.35433C0.836836 8.36518 0.724298 8.3587 0.586024 8.3849C0.555591 8.39066 0.513187 8.40171 0.479889 8.40952C0.478731 8.40977 0.47765 8.41011 0.476492 8.41037C0.474677 8.41079 0.472293 8.41167 0.470549 8.41207C0.236333 8.46866 0.0858728 8.68394 0.134311 8.89605C0.182761 9.1082 0.411538 9.23722 0.647158 9.18643C0.648859 9.18604 0.651329 9.18598 0.653102 9.18559C0.655762 9.18498 0.658104 9.18369 0.660744 9.18304C0.693589 9.17583 0.734751 9.16781 0.763483 9.16012C0.899427 9.12372 0.997883 9.07024 1.1201 9.02341C1.38303 8.92911 1.6008 8.85033 1.81295 8.81963C1.90156 8.81269 1.99492 8.8743 2.04136 8.9003L2.21457 8.87058C2.61317 10.1064 3.4485 11.1052 4.50625 11.732L4.43408 11.9052C4.46009 11.9725 4.48878 12.0635 4.46941 12.1299C4.39228 12.3299 4.26016 12.541 4.10973 12.7764C4.03689 12.8851 3.96234 12.9695 3.89661 13.0939C3.88088 13.1237 3.86085 13.1694 3.84566 13.2009C3.74353 13.4194 3.81845 13.6711 4.01463 13.7656C4.21205 13.8606 4.45709 13.7604 4.56314 13.5414C4.5633 13.5411 4.56384 13.5409 4.56399 13.5405C4.56409 13.5403 4.56388 13.5399 4.56399 13.5397C4.57909 13.5087 4.60049 13.4678 4.61323 13.4387C4.66953 13.3097 4.68827 13.1991 4.72786 13.0744C4.833 12.8103 4.89077 12.5332 5.0355 12.3605C5.07514 12.3132 5.13975 12.295 5.20674 12.2771L5.29675 12.1141C6.21887 12.468 7.25105 12.563 8.28213 12.3289C8.51735 12.2755 8.74442 12.2064 8.96394 12.1234C8.98924 12.1683 9.03625 12.2545 9.04885 12.2763C9.11693 12.2984 9.19124 12.3098 9.25178 12.3994C9.36007 12.5844 9.43412 12.8032 9.52434 13.0676C9.56394 13.1923 9.58351 13.3029 9.63982 13.4319C9.65265 13.4613 9.67394 13.5026 9.68906 13.5338C9.79489 13.7534 10.0407 13.854 10.2384 13.7588C10.4346 13.6643 10.5096 13.4126 10.4074 13.1941C10.3922 13.1627 10.3713 13.1169 10.3556 13.0871C10.2899 12.9627 10.2153 12.8792 10.1425 12.7704C9.99202 12.5351 9.86724 12.3396 9.7901 12.1396C9.75785 12.0364 9.79555 11.9722 9.82067 11.9052C9.80562 11.888 9.77343 11.7905 9.75444 11.7447C10.8537 11.0957 11.6645 10.0596 12.0453 8.86294C12.0967 8.87102 12.1861 8.88683 12.2151 8.89265C12.2749 8.85324 12.3298 8.80181 12.4376 8.81029C12.6497 8.84098 12.8675 8.91978 13.1304 9.01407C13.2526 9.06089 13.3511 9.11523 13.487 9.15163C13.5158 9.15932 13.5569 9.16649 13.5898 9.1737C13.5924 9.17435 13.5947 9.17564 13.5974 9.17625C13.5992 9.17664 13.6016 9.17671 13.6033 9.1771C13.839 9.22782 14.0678 9.09888 14.1162 8.88671C14.1646 8.67459 14.0142 8.45926 13.78 8.40273C13.7459 8.39498 13.6976 8.38183 13.6645 8.37556C13.5262 8.34937 13.4137 8.35583 13.2832 8.34499C13.0054 8.31588 12.7753 8.29221 12.5709 8.22782C12.4875 8.19548 12.4282 8.09628 12.3993 8.05546L12.2389 8.00876C12.3221 7.4068 12.2996 6.78033 12.1557 6.1535C12.0103 5.52084 11.7535 4.94221 11.411 4.43241C11.4522 4.39499 11.5299 4.32615 11.552 4.3059C11.5584 4.23459 11.5529 4.15984 11.6267 4.08089C11.7829 3.93415 11.98 3.81247 12.2176 3.66569C12.3304 3.59932 12.4347 3.55654 12.5479 3.47294C12.5735 3.45404 12.6085 3.4241 12.6354 3.40247C12.826 3.25041 12.8699 2.98816 12.733 2.8166C12.5962 2.64504 12.331 2.62888 12.1404 2.78094C12.1132 2.80243 12.0764 2.83046 12.0521 2.85141C11.9454 2.94319 11.8795 3.03385 11.7897 3.12906C11.5937 3.32811 11.4317 3.49418 11.2539 3.61389C11.1769 3.65875 11.064 3.64323 11.0128 3.64021L10.8616 3.74805C9.99982 2.84433 8.82643 2.26655 7.56296 2.15431C7.55942 2.10136 7.55479 2.00566 7.55362 1.97685C7.50189 1.92736 7.43941 1.8851 7.42371 1.77817C7.40642 1.5645 7.43528 1.33462 7.46871 1.0573C7.48716 0.927725 7.51782 0.820088 7.52305 0.679452C7.52424 0.647483 7.52233 0.601092 7.5222 0.566524C7.52218 0.322692 7.34429 0.124978 7.12483 0.125ZM6.62727 3.20718L6.50924 5.29168L6.50075 5.29593C6.49284 5.48241 6.33936 5.63132 6.15093 5.63132C6.07374 5.63132 6.0025 5.60653 5.9446 5.56424L5.94121 5.56594L4.232 4.35429C4.75731 3.83775 5.42922 3.45602 6.20357 3.2802C6.34502 3.24808 6.48641 3.22425 6.62727 3.20718ZM7.62324 3.20718C8.52731 3.31837 9.36339 3.72774 10.0041 4.35514L8.30591 5.55914L8.29996 5.5566C8.14923 5.66668 7.93687 5.63937 7.81938 5.49207C7.77125 5.43172 7.746 5.36077 7.74296 5.28914L7.74127 5.28829L7.62324 3.20718ZM3.61216 5.1329L5.17278 6.5288L5.17108 6.53729C5.31195 6.65975 5.33272 6.87225 5.21524 7.01957C5.16711 7.07992 5.10269 7.12039 5.03353 7.13929L5.03184 7.14608L3.03139 7.72346C2.92957 6.79245 3.149 5.88744 3.61216 5.1329ZM10.6265 5.13375C10.8583 5.50959 11.0339 5.92937 11.1385 6.38445C11.2417 6.83408 11.2676 7.28291 11.2251 7.71667L9.21443 7.13759L9.21273 7.1291C9.03268 7.07989 8.92203 6.89675 8.96395 6.71305C8.98112 6.6378 9.02107 6.57413 9.07518 6.5271L9.07433 6.52285L10.6265 5.13375ZM6.80472 6.63663H7.44409L7.84146 7.13335L7.69881 7.75318L7.12483 8.02913L6.54915 7.75233L6.4065 7.1325L6.80472 6.63663ZM8.85442 8.3365C8.88159 8.33513 8.90864 8.33757 8.93508 8.34244L8.93848 8.3382L11.0077 8.68802C10.7049 9.53882 10.1254 10.2759 9.35113 10.7691L8.5479 8.82897L8.55044 8.82557C8.47666 8.65413 8.5505 8.45307 8.72026 8.37131C8.76372 8.35038 8.80913 8.33879 8.85442 8.3365ZM5.37911 8.34499C5.53702 8.3472 5.67866 8.4568 5.71535 8.61755C5.73253 8.6928 5.72417 8.76736 5.69582 8.83321L5.70176 8.84086L4.90702 10.7615C4.16398 10.2847 3.57214 9.57076 3.25555 8.69481L5.30694 8.34669L5.31034 8.35093C5.33328 8.34671 5.35655 8.34467 5.37911 8.34499ZM7.11209 9.18643C7.1671 9.18441 7.22291 9.1957 7.27597 9.22125C7.34551 9.25474 7.39923 9.30747 7.43305 9.37069H7.44069L8.45195 11.1979C8.32071 11.2419 8.18578 11.2795 8.04778 11.3108C7.27438 11.4864 6.50344 11.4332 5.80535 11.1954L6.81406 9.37154H6.81576C6.87629 9.25839 6.99108 9.19088 7.11209 9.18643Z" fill="#969696" stroke="#969696" stroke-width="0.25"/>
</svg>
