<svg width="16" height="16" viewBox="0 0 16 16" fill="none" xmlns="http://www.w3.org/2000/svg">
<path d="M7.4221 10.8994V0.626047M4.68796 2.96859C5.36297 2.17716 5.88745 1.51038 6.76708 0.837723C6.95474 0.696501 7.18403 0.621705 7.41886 0.625111C7.65368 0.628518 7.88071 0.709933 8.06419 0.856538C8.87914 1.49274 9.41186 2.04192 10.1574 2.96742M6.21438 11.1699C5.56505 10.9757 4.96549 10.6431 4.45696 10.1951C3.94844 9.74704 3.543 9.19416 3.26855 8.57447M7.4221 10.4572C8.31186 10.1883 9.13348 9.7314 9.8314 9.11747C10.5293 8.50355 11.0873 7.7469 11.4675 6.89871" stroke="#969696" stroke-width="1.25" stroke-linecap="round" stroke-linejoin="round"/>
<path d="M2.38896 8.74255C3.5179 8.74255 4.15293 8.10752 4.15293 6.97858C4.15293 5.84965 3.5179 5.21462 2.38896 5.21462C1.26003 5.21462 0.625 5.84965 0.625 6.97858C0.625 8.10752 1.26003 8.74255 2.38896 8.74255ZM12.861 7.45603C13.99 7.45603 14.625 6.821 14.625 5.69207C14.625 4.56313 13.99 3.9281 12.861 3.9281C11.7321 3.9281 11.0971 4.56313 11.0971 5.69207C11.0971 6.821 11.7321 7.45603 12.861 7.45603ZM7.42214 15.2328C8.8098 15.2328 9.58947 14.4531 9.58947 13.0654C9.58947 11.6778 8.80862 10.8993 7.42214 10.8993C6.03449 10.8993 5.25482 11.679 5.25482 13.0654C5.25482 14.4519 6.03449 15.2328 7.42214 15.2328Z" stroke="#969696" stroke-width="1.25" stroke-linecap="round" stroke-linejoin="round"/>
</svg>
